{
  "source": "C:\\Users\\Peter\\Desktop\\stuff\\MIUN\\quantitative_research\\video_compression\\videos\\BVI-HD\\BVI-HD_CDVL_videos\\ORIG\\PlasmaAveragePan_1920x1080_60fps.mp4",
  "output": "C:\\Users\\Peter\\Desktop\\stuff\\MIUN\\quantitative_research\\video_compression\\compressed_videos\\BVI-HD\\vp9\\2\\PlasmaAveragePan_1920x1080_60fps_vp9.webm",
  "codec": "vp9",
  "ok": "Input #0, mov,mp4,m4a,3gp,3g2,mj2, from 'C:\\Users\\Peter\\Desktop\\stuff\\MIUN\\quantitative_research\\video_compression\\videos\\BVI-HD\\BVI-HD_CDVL_videos\\ORIG\\PlasmaAveragePan_1920x1080_60fps.mp4':\n  Metadata:\n    major_brand     : isom\n    minor_version   : 512\n    compatible_brands: isomiso2avc1mp41\n    encoder         : Lavf54.28.101\n  Duration: 00:00:05.00, start: 0.000000, bitrate: 73730 kb/s\n  Stream #0:0[0x1](und): Video: h264 (High 4:4:4 Predictive) (avc1 / 0x31637661), yuv420p(progressive), 1920x1080, 73727 kb/s, 60 fps, 60 tbr, 60 tbn (default)\n    Metadata:\n      handler_name    : VideoHandler\n      vendor_id       : [0][0][0][0]\n[out#0/webm @ 000001e338de0840] Codec AVOption b:a (set bitrate (in bits/s)) has not been used for any stream. The most likely reason is either wrong type (e.g. a video option with no video streams) or that it is a private option of some decoder which was not actually used for any stream.\nStream mapping:\n  Stream #0:0 -> #0:0 (h264 (native) -> vp9 (libvpx-vp9))\nPress [q] to stop, [?] for help\n[libvpx-vp9 @ 000001e339512240] v1.15.2-100-g40561f514\nOutput #0, webm, to 'C:\\Users\\Peter\\Desktop\\stuff\\MIUN\\quantitative_research\\video_compression\\compressed_videos\\BVI-HD\\vp9\\2\\PlasmaAveragePan_1920x1080_60fps_vp9.webm':\n  Metadata:\n    major_brand     : isom\n    minor_version   : 512\n    compatible_brands: isomiso2avc1mp41\n    encoder         : Lavf62.3.100\n  Stream #0:0(und): Video: vp9, yuv420p(tv, progressive), 1920x1080, q=2-31, 2000 kb/s, 60 fps, 1k tbn (default)\n    Metadata:\n      encoder         : Lavc62.11.100 libvpx-vp9\n      handler_name    : VideoHandler\n      vendor_id       : [0][0][0][0]\n    Side data:\n      cpb: bitrate max/min/avg: 0/0/0 buffer size: 2000000 vbv_delay: N/A\nframe=    4 fps=0.0 q=62.0 size=       1KiB time=00:00:00.06 bitrate=  76.0kbits/s speed=0.127x elapsed=0:00:00.52    \nframe=   12 fps= 11 q=52.0 size=       1KiB time=00:00:00.20 bitrate=  25.3kbits/s speed=0.188x elapsed=0:00:01.06    \nframe=   19 fps= 12 q=50.0 size=       1KiB time=00:00:00.31 bitrate=  16.0kbits/s speed=0.199x elapsed=0:00:01.58    \nframe=   27 fps= 13 q=50.0 size=       1KiB time=00:00:00.45 bitrate=  11.3kbits/s speed=0.212x elapsed=0:00:02.11    \nframe=   35 fps= 13 q=51.0 size=       1KiB time=00:00:00.58 bitrate=   8.7kbits/s speed=0.221x elapsed=0:00:02.64    \nframe=   40 fps= 12 q=53.0 size=       1KiB time=00:00:00.66 bitrate=   7.6kbits/s speed=0.206x elapsed=0:00:03.23    \nframe=   44 fps= 12 q=53.0 size=       1KiB time=00:00:00.73 bitrate=   6.9kbits/s speed=0.195x elapsed=0:00:03.75    \nframe=   50 fps= 12 q=53.0 size=       1KiB time=00:00:00.83 bitrate=   6.1kbits/s speed=0.196x elapsed=0:00:04.26    \nframe=   58 fps= 12 q=52.0 size=       1KiB time=00:00:00.96 bitrate=   5.2kbits/s speed=0.202x elapsed=0:00:04.78    \nframe=   65 fps= 12 q=53.0 size=       1KiB time=00:00:01.08 bitrate=   4.7kbits/s speed=0.204x elapsed=0:00:05.30    \nframe=   72 fps= 12 q=54.0 size=       1KiB time=00:00:01.20 bitrate=   4.2kbits/s speed=0.206x elapsed=0:00:05.83    \nframe=   80 fps= 13 q=55.0 size=       1KiB time=00:00:01.33 bitrate=   3.8kbits/s speed=0.21x elapsed=0:00:06.36    \nframe=   88 fps= 13 q=54.0 size=       1KiB time=00:00:01.45 bitrate=   3.5kbits/s speed=0.211x elapsed=0:00:06.88    \nframe=   94 fps= 13 q=52.0 size=       1KiB time=00:00:01.56 bitrate=   3.2kbits/s speed=0.211x elapsed=0:00:07.41    \nframe=  101 fps= 13 q=51.0 size=       1KiB time=00:00:01.68 bitrate=   3.0kbits/s speed=0.211x elapsed=0:00:07.97    \nframe=  108 fps= 13 q=52.0 size=       1KiB time=00:00:01.80 bitrate=   2.8kbits/s speed=0.212x elapsed=0:00:08.50    \nframe=  115 fps= 13 q=54.0 size=       1KiB time=00:00:01.91 bitrate=   2.6kbits/s speed=0.212x elapsed=0:00:09.04    \nframe=  122 fps= 13 q=54.0 size=       1KiB time=00:00:02.03 bitrate=   2.5kbits/s speed=0.212x elapsed=0:00:09.56    \nframe=  128 fps= 13 q=55.0 size=       1KiB time=00:00:02.13 bitrate=   2.4kbits/s speed=0.212x elapsed=0:00:10.08    \nframe=  135 fps= 13 q=54.0 size=     256KiB time=00:00:02.23 bitrate= 939.0kbits/s speed=0.21x elapsed=0:00:10.61    \nframe=  141 fps= 13 q=54.0 size=     256KiB time=00:00:02.35 bitrate= 892.4kbits/s speed=0.211x elapsed=0:00:11.14    \nframe=  148 fps= 13 q=53.0 size=     256KiB time=00:00:02.46 bitrate= 850.2kbits/s speed=0.211x elapsed=0:00:11.68    \nframe=  155 fps= 13 q=54.0 size=     256KiB time=00:00:02.58 bitrate= 811.8kbits/s speed=0.211x elapsed=0:00:12.21    \nframe=  162 fps= 13 q=56.0 size=     256KiB time=00:00:02.68 bitrate= 781.5kbits/s speed=0.21x elapsed=0:00:12.74    \nframe=  167 fps= 13 q=55.0 size=     256KiB time=00:00:02.78 bitrate= 753.5kbits/s speed=0.209x elapsed=0:00:13.31    \nframe=  174 fps= 13 q=55.0 size=     256KiB time=00:00:02.90 bitrate= 723.2kbits/s speed=0.21x elapsed=0:00:13.83    \nframe=  180 fps= 13 q=53.0 size=     256KiB time=00:00:03.00 bitrate= 699.1kbits/s speed=0.209x elapsed=0:00:14.34    \nframe=  187 fps= 13 q=53.0 size=     256KiB time=00:00:03.11 bitrate= 672.9kbits/s speed=0.21x elapsed=0:00:14.86    \nframe=  195 fps= 13 q=52.0 size=     256KiB time=00:00:03.25 bitrate= 645.3kbits/s speed=0.211x elapsed=0:00:15.38    \nframe=  201 fps= 13 q=53.0 size=     256KiB time=00:00:03.35 bitrate= 626.0kbits/s speed=0.21x elapsed=0:00:15.93    \nframe=  208 fps= 13 q=53.0 size=     256KiB time=00:00:03.46 bitrate= 604.9kbits/s speed=0.211x elapsed=0:00:16.45    \nframe=  214 fps= 13 q=53.0 size=     256KiB time=00:00:03.56 bitrate= 588.0kbits/s speed=0.21x elapsed=0:00:16.98    \nframe=  221 fps= 13 q=52.0 size=     256KiB time=00:00:03.68 bitrate= 569.4kbits/s speed=0.21x elapsed=0:00:17.50    \nframe=  228 fps= 13 q=52.0 size=     256KiB time=00:00:03.80 bitrate= 551.9kbits/s speed=0.211x elapsed=0:00:18.02    \nframe=  234 fps= 13 q=52.0 size=     256KiB time=00:00:03.90 bitrate= 537.7kbits/s speed=0.21x elapsed=0:00:18.54    \nframe=  241 fps= 13 q=54.0 size=     256KiB time=00:00:04.01 bitrate= 522.1kbits/s speed=0.211x elapsed=0:00:19.06    \nframe=  247 fps= 13 q=55.0 size=     256KiB time=00:00:04.11 bitrate= 509.4kbits/s speed=0.21x elapsed=0:00:19.58    \nframe=  255 fps= 13 q=55.0 size=     256KiB time=00:00:04.25 bitrate= 493.4kbits/s speed=0.211x elapsed=0:00:20.11    \nframe=  262 fps= 13 q=53.0 size=     512KiB time=00:00:04.36 bitrate= 960.5kbits/s speed=0.212x elapsed=0:00:20.63    \nframe=  269 fps= 13 q=31.0 size=     512KiB time=00:00:04.48 bitrate= 935.5kbits/s speed=0.212x elapsed=0:00:21.16    \nframe=  276 fps= 13 q=52.0 size=     512KiB time=00:00:04.58 bitrate= 915.1kbits/s speed=0.211x elapsed=0:00:21.69    \nframe=  276 fps= 12 q=52.0 size=     512KiB time=00:00:04.60 bitrate= 911.8kbits/s speed=0.207x elapsed=0:00:22.24    \nframe=  276 fps= 12 q=52.0 size=     512KiB time=00:00:04.60 bitrate= 911.8kbits/s speed=0.202x elapsed=0:00:22.75    \nframe=  276 fps= 12 q=52.0 size=     512KiB time=00:00:04.60 bitrate= 911.8kbits/s speed=0.198x elapsed=0:00:23.27    \n[out#0/webm @ 000001e338de0840] video:845KiB audio:0KiB subtitle:0KiB other streams:0KiB global headers:0KiB muxing overhead: 0.326438%\nframe=  300 fps= 13 q=53.0 Lsize=     848KiB time=00:00:05.00 bitrate=1389.2kbits/s speed=0.213x elapsed=0:00:23.50    \n",
  "seconds": 23.69755506515503,
  "probe_out": {}
}